<mxfile host="app.diagrams.net" modified="2020-07-14T17:01:34.502Z" agent="5.0 (X11)" etag="cJuq8kqK1NREc3wB8v4T" version="13.4.3" type="github">
  <diagram id="lejjNn5GJbrfdVNx11HZ" name="Page-1">
    <mxGraphModel dx="868" dy="463" grid="1" gridSize="10" guides="1" tooltips="1" connect="1" arrows="1" fold="1" page="1" pageScale="1" pageWidth="827" pageHeight="1169" math="0" shadow="0">
      <root>
        <mxCell id="0" />
        <mxCell id="1" parent="0" />
        <mxCell id="E_-bmu4fmeF-Qz2Fk6lD-7" value="" style="shape=parallelogram;perimeter=parallelogramPerimeter;whiteSpace=wrap;html=1;shadow=0;dashed=1;strokeColor=#0000CC;strokeWidth=3;" parent="1" vertex="1">
          <mxGeometry x="30" y="120" width="370" height="240" as="geometry" />
        </mxCell>
        <mxCell id="E_-bmu4fmeF-Qz2Fk6lD-6" value="" style="shape=parallelogram;perimeter=parallelogramPerimeter;whiteSpace=wrap;html=1;shadow=0;strokeWidth=3;strokeColor=#CC0066;dashed=1;" parent="1" vertex="1">
          <mxGeometry x="320" y="350" width="500" height="200" as="geometry" />
        </mxCell>
        <mxCell id="E_-bmu4fmeF-Qz2Fk6lD-1" value="&lt;b&gt;Service DNS&lt;br&gt;secondaire&lt;br&gt;&lt;/b&gt;" style="verticalLabelPosition=bottom;html=1;verticalAlign=top;strokeWidth=1;align=center;outlineConnect=0;dashed=0;outlineConnect=0;shape=mxgraph.aws3d.application;strokeColor=#57A2D8;aspect=fixed;fillColor=#4286C5;" parent="1" vertex="1">
          <mxGeometry x="270" y="171.2" width="62" height="68.8" as="geometry" />
        </mxCell>
        <mxCell id="E_-bmu4fmeF-Qz2Fk6lD-2" value="&lt;b&gt;Service DNS&lt;br&gt;primaire&lt;br&gt;&lt;/b&gt;" style="verticalLabelPosition=bottom;html=1;verticalAlign=top;strokeWidth=1;align=center;outlineConnect=0;dashed=0;outlineConnect=0;shape=mxgraph.aws3d.application;fillColor=#4286c5;strokeColor=#57A2D8;aspect=fixed;" parent="1" vertex="1">
          <mxGeometry x="140" y="140" width="62" height="68.8" as="geometry" />
        </mxCell>
        <mxCell id="E_-bmu4fmeF-Qz2Fk6lD-3" value="&lt;b&gt;Serveur&lt;br&gt;personnel&lt;br&gt;&lt;/b&gt;" style="verticalLabelPosition=bottom;html=1;verticalAlign=top;strokeWidth=1;align=center;outlineConnect=0;dashed=0;outlineConnect=0;shape=mxgraph.aws3d.application2;fillColor=#86E83A;strokeColor=#B0F373;aspect=fixed;" parent="1" vertex="1">
          <mxGeometry x="440" y="370" width="72" height="61.55" as="geometry" />
        </mxCell>
        <mxCell id="E_-bmu4fmeF-Qz2Fk6lD-16" value="&lt;b&gt;Réseau du fournisseur d&#39;hébergement&lt;/b&gt;" style="text;html=1;strokeColor=none;fillColor=none;align=center;verticalAlign=middle;whiteSpace=wrap;rounded=0;shadow=0;dashed=1;" parent="1" vertex="1">
          <mxGeometry x="350" y="510" width="200" height="20" as="geometry" />
        </mxCell>
        <mxCell id="E_-bmu4fmeF-Qz2Fk6lD-17" value="&lt;b&gt;Réseau du fournisseur &lt;br&gt;du service DNS&lt;br&gt;&lt;/b&gt;" style="text;html=1;strokeColor=none;fillColor=none;align=center;verticalAlign=middle;whiteSpace=wrap;rounded=0;shadow=0;dashed=1;" parent="1" vertex="1">
          <mxGeometry x="30" y="330" width="200" height="20" as="geometry" />
        </mxCell>
        <mxCell id="c0aj5AkgzgIFBKRIhpNa-1" value="&lt;b&gt;Serveur&lt;br&gt;tiers&lt;/b&gt;" style="verticalLabelPosition=bottom;html=1;verticalAlign=top;strokeWidth=1;align=center;outlineConnect=0;dashed=0;outlineConnect=0;shape=mxgraph.aws3d.application2;strokeColor=#B0F373;aspect=fixed;fillColor=#007FFF;" vertex="1" parent="1">
          <mxGeometry x="650" y="448.45" width="72" height="61.55" as="geometry" />
        </mxCell>
        <mxCell id="c0aj5AkgzgIFBKRIhpNa-3" value="" style="verticalLabelPosition=bottom;html=1;verticalAlign=top;strokeWidth=1;align=center;outlineConnect=0;dashed=0;outlineConnect=0;shape=mxgraph.aws3d.dashedEdgeDouble;fillColor=#000000;aspect=fixed;" vertex="1" parent="1">
          <mxGeometry x="520" y="420" width="105.35" height="60" as="geometry" />
        </mxCell>
        <mxCell id="c0aj5AkgzgIFBKRIhpNa-4" value="&lt;font color=&quot;#004C99&quot;&gt;&lt;b&gt;Sauvegarde, Supervision Sécurité&lt;br&gt; et Administration Centralisée &lt;br&gt;&lt;/b&gt;&lt;/font&gt;" style="text;html=1;strokeColor=none;fillColor=none;align=center;verticalAlign=middle;whiteSpace=wrap;rounded=0;shadow=0;dashed=1;" vertex="1" parent="1">
          <mxGeometry x="550" y="411.55" width="200" height="20" as="geometry" />
        </mxCell>
      </root>
    </mxGraphModel>
  </diagram>
</mxfile>
